<svg width="104" height="23" viewBox="0 0 104 23" fill="none" xmlns="http://www.w3.org/2000/svg">
<path id="Vector" d="M6.55606 5.68595C9.82606 5.68595 12.8171 7.47195 12.9831 10.8969H9.18005C9.03905 9.82695 8.06507 9.01695 6.54807 9.01695C4.74507 9.01695 3.79607 10.089 3.79607 11.922C3.79607 13.754 4.74507 14.8489 6.54807 14.8489C8.05807 14.8489 9.03905 14.039 9.18005 12.969H12.9761C12.8101 16.396 9.82107 18.18 6.54807 18.18C2.73007 18.18 0.00805664 15.944 0.00805664 11.922C0.00805664 7.89895 2.73006 5.68595 6.55606 5.68595V5.68595ZM27.8721 11.444V17.943H24.0761V12.04C24.0761 9.84995 23.4371 9.01195 21.6111 9.01195C19.5451 9.01195 18.1951 10.107 18.1951 13.486V17.938H14.3981V0.449951H18.1951V7.37495L17.4831 9.51495H18.4311C18.9061 7.37495 20.4011 5.68495 22.9591 5.68495C26.0231 5.68495 27.8721 7.73095 27.8721 11.443V11.444ZM34.3271 10.874L38.1011 10.3519C38.1011 9.37495 37.3461 8.77995 35.7041 8.77995C34.1941 8.77995 33.3311 9.42295 33.3311 10.518H29.7741C29.7741 7.47195 32.3581 5.68595 35.7041 5.68595C39.0021 5.68595 41.8951 7.28095 41.8951 11.2379V14.6189H43.6281V17.951H40.9941C39.8541 17.951 39.2151 17.307 39.2151 16.166V15.914L39.8071 14.486H38.8581C38.4081 16.484 37.2461 18.1759 33.9001 18.1759C30.1771 18.1759 29.5351 15.8909 29.5351 14.6419C29.5351 12.5879 30.7701 11.374 34.3271 10.874V10.874ZM34.6371 14.8489C36.7251 14.8489 38.1011 13.969 38.1011 12.492L35.0391 12.921C33.9001 13.087 33.3311 13.254 33.3311 13.943C33.3311 14.632 33.9951 14.8489 34.6371 14.8489ZM48.8451 13.491V17.943H45.0471V5.92495H48.8401V7.37595L48.1291 9.51595H49.0791C49.5521 7.37595 51.0471 5.68595 53.6081 5.68595C56.6671 5.68595 58.5181 7.73195 58.5181 11.445V17.943H54.722V12.04C54.722 9.84995 54.0811 9.01195 52.2541 9.01195C50.1991 9.01695 48.8451 10.112 48.8451 13.492V13.491ZM75.2721 5.92495V9.25695H74.4791C74.094 9.22118 73.7067 9.29538 73.3621 9.47095C73.5961 9.89295 73.7111 10.37 73.6951 10.851C73.6951 13.123 71.5841 14.5389 68.2861 15.6469C71.0151 15.4799 73.554 16.194 73.554 18.741C73.554 22.286 69.4001 22.693 60.5051 22.693V19.379C68.2631 19.379 69.7321 19.2609 69.7321 17.9529C69.7321 16.1869 65.4411 16.977 61.7631 17.595L61.36 15.455C64.087 15.167 66.5551 14.882 68.7361 14.36V13.3979C64.3491 14.9679 59.7231 14.324 59.7231 10.37C59.7231 7.20495 62.711 5.67995 66.485 5.67995C68.311 5.67995 69.9711 6.03895 71.2291 6.96495C71.9391 6.03895 73.174 5.91995 74.248 5.91995L75.2721 5.92495V5.92495ZM69.8881 10.6119C69.8881 9.60195 68.9851 9.01695 66.7091 9.01695C64.4321 9.01695 63.5061 9.61295 63.5061 10.6119C63.5061 11.6119 64.4321 12.207 66.7091 12.207C68.9851 12.207 69.8881 11.6369 69.8881 10.6119ZM82.2941 5.68595C86.0191 5.68595 88.6281 7.89895 88.6281 11.541V12.7309H79.5421C79.5421 14.1099 80.5481 15.0859 82.6991 15.0859C84.0271 15.0859 85.0231 14.612 85.2601 13.706H89.0561C88.8191 15.445 86.8491 18.18 82.6991 18.18C78.0951 18.18 75.9841 15.182 75.9841 11.778C75.9891 7.97195 78.5701 5.68595 82.2941 5.68595V5.68595ZM85.0611 10.589C85.0611 9.68295 84.3971 8.77895 82.2941 8.77895C80.1911 8.77895 79.5421 9.68295 79.5421 10.589H85.0611ZM104 18.417V21.2739H91.188V18.417H104Z" fill="#E5E044"/>
</svg>
