<svg width="65" height="19" viewBox="0 0 65 19" fill="none" xmlns="http://www.w3.org/2000/svg">
<path id="Vector" d="M20.203 11.6839V17.943H16.409V11.944C16.409 9.67295 16.03 9.01695 14.628 9.01695C12.566 9.01695 12.09 10.8269 12.09 13.7309V17.943H8.29696V11.944C8.29696 9.67295 7.91696 9.01695 6.51496 9.01695C4.45296 9.01695 3.97696 10.8269 3.97696 13.7309V17.943H0.18396V5.92495H3.97696V7.13695L3.26796 9.28395H4.21597C4.68897 7.14195 5.78097 5.68995 8.10497 5.68995C10.369 5.68995 11.308 7.18995 11.665 9.28395H12.352C12.827 7.14195 13.894 5.68995 16.218 5.68995C19.28 5.68495 20.203 8.44595 20.203 11.6839V11.6839ZM26.653 10.874L30.427 10.3519C30.427 9.37495 29.672 8.77995 28.029 8.77995C26.52 8.77995 25.657 9.42295 25.657 10.518H22.1C22.1 7.47195 24.686 5.68595 28.029 5.68595C31.327 5.68595 34.223 7.28095 34.223 11.2379V14.6189H35.953V17.951H33.32C32.182 17.951 31.541 17.307 31.541 16.166V15.914L32.135 14.486H31.184C30.733 16.484 29.571 18.1759 26.228 18.1759C22.502 18.1759 21.863 15.8909 21.863 14.6419C21.863 12.5879 23.096 11.374 26.653 10.874V10.874ZM26.962 14.8489C29.05 14.8489 30.427 13.969 30.427 12.492L27.365 12.921C26.228 13.087 25.657 13.254 25.657 13.943C25.657 14.632 26.321 14.8489 26.962 14.8489ZM43.806 13.3019L41.173 14.5379V17.943H37.379V0.449951H41.173V10.61L46.654 8.08695L46.606 5.92095H50.415V8.53895C50.415 9.67895 49.965 10.419 48.921 10.919L47.069 11.7739L51.127 17.9389H46.795L43.806 13.3009V13.3019ZM57.661 5.68595C61.386 5.68595 63.995 7.89895 63.995 11.541V12.7309H54.909C54.909 14.1099 55.915 15.0859 58.063 15.0859C59.394 15.0859 60.39 14.612 60.627 13.706H64.423C64.184 15.445 62.217 18.18 58.063 18.18C53.462 18.18 51.352 15.182 51.352 11.778C51.352 7.97195 53.938 5.68595 57.661 5.68595V5.68595ZM60.428 10.589C60.428 9.68295 59.764 8.77895 57.661 8.77895C55.558 8.77895 54.909 9.68295 54.909 10.589H60.428Z" fill="#E5E044"/>
</svg>
