<svg width="42" height="19" viewBox="0 0 42 19" fill="none" xmlns="http://www.w3.org/2000/svg">
<path id="Vector" d="M11.951 14.6119V17.943L5.75702 18.181C4.45402 18.229 3.74501 17.4659 3.74501 16.1609V9.25695H0.89502V5.92595H3.74202V3.65395L7.54602 2.47095V5.92295H11.483V9.25395H7.54602V14.847L11.951 14.6119V14.6119ZM27.321 11.444V17.943H23.525V12.04C23.525 9.84995 22.886 9.01195 21.06 9.01195C18.995 9.01195 17.644 10.107 17.644 13.486V17.938H13.848V0.449951H17.644V7.37495L16.932 9.51495H17.88C18.356 7.37495 19.85 5.68495 22.408 5.68495C25.472 5.68495 27.321 7.73095 27.321 11.443V11.444ZM35.055 5.68595C38.781 5.68595 41.39 7.89895 41.39 11.541V12.7309H32.303C32.303 14.1099 33.309 15.0859 35.458 15.0859C36.786 15.0859 37.785 14.612 38.021 13.706H41.817C41.566 15.445 39.611 18.18 35.458 18.18C30.857 18.18 28.746 15.182 28.746 11.778C28.746 7.97195 31.332 5.68595 35.055 5.68595V5.68595ZM37.823 10.589C37.823 9.68295 37.158 8.77895 35.055 8.77895C32.952 8.77895 32.303 9.68295 32.303 10.589H37.823Z" fill="white"/>
</svg>
