<svg width="14" height="14" viewBox="0 0 14 14" fill="none" xmlns="http://www.w3.org/2000/svg">
<path id="Vector" d="M13.3831 6.67393C13.3855 7.94761 13.0112 9.19356 12.307 10.2549C11.604 11.3151 10.602 12.1428 9.42805 12.6329C8.25526 13.1225 6.96331 13.2519 5.71671 13.0047C4.47012 12.7576 3.3253 12.1449 2.42805 11.2449C1.52894 10.3429 0.916594 9.19525 0.668024 7.94618C0.419455 6.6971 0.545757 5.40241 1.03105 4.22493C1.51561 3.04803 2.33829 2.04126 3.39504 1.33193C4.62852 0.504916 6.11103 0.132218 7.58896 0.277603C9.06689 0.422988 10.4484 1.07742 11.497 2.12893C12.7013 3.33542 13.3793 4.96931 13.3831 6.67393Z" fill="#E5E044"/>
</svg>
