<svg width="84" height="39" viewBox="0 0 84 39" fill="none" xmlns="http://www.w3.org/2000/svg">
<path id="Vector" d="M77.102 35.135C80.2252 32.6858 82.3802 29.2096 83.185 25.323C83.991 21.433 83.397 17.383 81.508 13.892C79.6216 10.4037 76.559 7.69753 72.865 6.255C69.1749 4.81492 65.0929 4.73445 61.349 6.028C57.6016 7.32442 54.4358 9.90837 52.415 13.32C50.3897 16.7367 49.6378 20.7594 50.292 24.677C50.9448 28.5924 52.9627 32.1502 55.988 34.72C59.0077 37.285 62.8409 38.6931 66.803 38.693C70.5376 38.6944 74.1646 37.4414 77.102 35.135ZM33.423 20.765V0C31.229 0 29.071 0.563 27.156 1.638C25.2397 2.71384 23.6315 4.26321 22.485 6.138C19.1435 4.90983 15.4967 4.78298 12.078 5.776C8.65606 6.77112 5.64131 8.83292 3.47296 11.661C1.30073 14.4932 0.0855904 17.9429 0.00325769 21.5112C-0.079075 25.0796 0.975667 28.5816 3.01496 31.511C5.05044 34.4366 7.96665 36.636 11.339 37.789C14.708 38.9398 18.3569 38.9826 21.752 37.911C25.15 36.8377 28.1167 34.7077 30.22 31.831C32.327 28.9496 33.4628 25.4726 33.463 21.903C33.463 21.519 33.443 21.141 33.423 20.765ZM41.652 12.934C39.962 12.934 38.34 13.608 37.145 14.807C35.9487 16.0079 35.277 17.6339 35.277 19.329V38.693C36.9628 38.6925 38.632 38.3592 40.1887 37.7122C41.7455 37.0653 43.1593 36.1174 44.349 34.923C46.7564 32.506 48.1078 29.2334 48.107 25.822V19.417C48.107 17.699 47.427 16.051 46.217 14.835C45.6184 14.2335 44.9072 13.756 44.1238 13.4298C43.3405 13.1036 42.5005 12.9351 41.652 12.934Z" fill="white"/>
</svg>
